# xmcd
#
# Track frame offsets:
#	150
#	11569
#	30881
#	43723
#	61384
#	76869
#	88819
#	102404
#	114963
#	127807
#
# Disc length: 1875 seconds
#
# Revision: 0
# Processed by: cddbd v1.4PL0 Copyright (c) Steve Scherf et al.
# Submitted via: EasyCDDAExtractor 4.6.0.1
#
DISCID=6d07510a
DTITLE=Various Blue Ridge - A Blue Ridge Christmas
DYEAR=1999
DGENRE=
TTITLE0=Sleigh Ride
TTITLE1=Follow That Star
TTITLE2=Santa's Bid Parade
TTITLE3=Have Yourself A Merry Little Christmas
TTITLE4=Little Drummer Boy
TTITLE5=That's What Christmas Means To Me
TTITLE6=Away In A Manger
TTITLE7=Simle Gifts
TTITLE8=Santa Claus Is Coming To Town
TTITLE9=Christmas Time's A Comin
EXTD=
EXTT0=
EXTT1=
EXTT2=
EXTT3=
EXTT4=
EXTT5=
EXTT6=
EXTT7=
EXTT8=
EXTT9=
PLAYORDER=
